<svg width="170" height="50" viewBox="0 0 170 50" fill="none" xmlns="http://www.w3.org/2000/svg">
<rect width="170" height="50" rx="3" fill="#F9F9F9" fill-opacity="0.976471"/>
<path d="M58.6168 24.8322C58.6168 23.6221 58.887 22.5413 59.4274 21.5897C59.9796 20.6263 60.7256 19.8803 61.6654 19.3516C62.617 18.8112 63.6803 18.541 64.8551 18.541C66.2296 18.541 67.4338 18.8935 68.4677 19.5984C69.5015 20.3032 70.224 21.2784 70.6352 22.5237H67.798C67.5161 21.9363 67.1166 21.4957 66.5997 21.202C66.0945 20.9083 65.5071 20.7614 64.8375 20.7614C64.1208 20.7614 63.4805 20.9318 62.9166 21.2725C62.3645 21.6014 61.9298 22.0714 61.6126 22.6823C61.3071 23.2932 61.1544 24.0098 61.1544 24.8322C61.1544 25.6428 61.3071 26.3595 61.6126 26.9821C61.9298 27.593 62.3645 28.0688 62.9166 28.4095C63.4805 28.7385 64.1208 28.9029 64.8375 28.9029C65.5071 28.9029 66.0945 28.7561 66.5997 28.4624C67.1166 28.1569 67.5161 27.7105 67.798 27.1231H70.6352C70.224 28.3801 69.5015 29.3611 68.4677 30.066C67.4456 30.7592 66.2414 31.1057 64.8551 31.1057C63.6803 31.1057 62.617 30.8414 61.6654 30.3127C60.7256 29.7723 59.9796 29.0263 59.4274 28.0747C58.887 27.1231 58.6168 26.0423 58.6168 24.8322ZM78.2759 31.1234C77.1245 31.1234 76.0672 30.8531 75.1038 30.3127C74.1405 29.7723 73.3769 29.0263 72.8129 28.0747C72.249 27.1113 71.9671 26.0246 71.9671 24.8146C71.9671 23.6162 72.249 22.5413 72.8129 21.5897C73.3769 20.6263 74.1405 19.8744 75.1038 19.334C76.0672 18.7936 77.1245 18.5234 78.2759 18.5234C79.4389 18.5234 80.4963 18.7936 81.4479 19.334C82.4112 19.8744 83.169 20.6263 83.7212 21.5897C84.2851 22.5413 84.567 23.6162 84.567 24.8146C84.567 26.0246 84.2851 27.1113 83.7212 28.0747C83.169 29.0263 82.4112 29.7723 81.4479 30.3127C80.4845 30.8531 79.4272 31.1234 78.2759 31.1234ZM78.2759 28.9206C79.016 28.9206 79.668 28.7561 80.2319 28.4271C80.7959 28.0864 81.2364 27.6048 81.5536 26.9821C81.8708 26.3595 82.0294 25.6369 82.0294 24.8146C82.0294 23.9922 81.8708 23.2755 81.5536 22.6646C81.2364 22.042 80.7959 21.5662 80.2319 21.2372C79.668 20.9083 79.016 20.7438 78.2759 20.7438C77.5357 20.7438 76.8778 20.9083 76.3022 21.2372C75.7382 21.5662 75.2977 22.042 74.9805 22.6646C74.6633 23.2755 74.5047 23.9922 74.5047 24.8146C74.5047 25.6369 74.6633 26.3595 74.9805 26.9821C75.2977 27.6048 75.7382 28.0864 76.3022 28.4271C76.8778 28.7561 77.5357 28.9206 78.2759 28.9206ZM96.7468 31H94.2797L88.6934 22.5589V31H86.2263V18.682H88.6934L94.2797 27.1407V18.682H96.7468V31ZM107.379 18.6996V20.6909H104.102V31H101.634V20.6909H98.3566V18.6996H107.379ZM111.47 18.6996V31H109.003V18.6996H111.47ZM124.252 31H121.785L116.199 22.5589V31H113.732V18.682H116.199L121.785 27.1407V18.682H124.252V31ZM128.946 18.6996V26.3125C128.946 27.1466 129.163 27.7869 129.598 28.2333C130.033 28.668 130.643 28.8853 131.431 28.8853C132.229 28.8853 132.846 28.668 133.281 28.2333C133.716 27.7869 133.933 27.1466 133.933 26.3125V18.6996H136.418V26.2948C136.418 27.3404 136.189 28.2274 135.73 28.9558C135.284 29.6725 134.679 30.2129 133.915 30.5771C133.163 30.9413 132.323 31.1234 131.395 31.1234C130.479 31.1234 129.645 30.9413 128.893 30.5771C128.153 30.2129 127.565 29.6725 127.131 28.9558C126.696 28.2274 126.479 27.3404 126.479 26.2948V18.6996H128.946ZM141.092 20.6909V23.7748H145.234V25.7309H141.092V28.9911H145.762V31H138.625V18.682H145.762V20.6909H141.092Z" fill="black"/>
<g clip-path="url(#clip0_21_3)">
<path d="M28.3334 15.4583V33.5417L42.5417 24.5L28.3334 15.4583Z" fill="black"/>
</g>
<defs>
<clipPath id="clip0_21_3">
<rect width="31" height="31" fill="white" transform="translate(18 9)"/>
</clipPath>
</defs>
</svg>
