<svg width="40" height="40" viewBox="0 0 40 40" fill="none" xmlns="http://www.w3.org/2000/svg">
<circle cx="20" cy="20" r="20" fill="black"/>
<circle cx="20" cy="20" r="18.5" stroke="#F9F9F9" stroke-opacity="0.976471" stroke-width="3"/>
<g clip-path="url(#clip0_21_4)">
<path d="M26.5001 21.0834H21.0834V26.5C21.0834 27.0959 20.5959 27.5834 20.0001 27.5834C19.4042 27.5834 18.9167 27.0959 18.9167 26.5V21.0834H13.5001C12.9042 21.0834 12.4167 20.5959 12.4167 20C12.4167 19.4042 12.9042 18.9167 13.5001 18.9167H18.9167V13.5C18.9167 12.9042 19.4042 12.4167 20.0001 12.4167C20.5959 12.4167 21.0834 12.9042 21.0834 13.5V18.9167H26.5001C27.0959 18.9167 27.5834 19.4042 27.5834 20C27.5834 20.5959 27.0959 21.0834 26.5001 21.0834Z" fill="#F9F9F9" fill-opacity="0.976471"/>
</g>
<defs>
<clipPath id="clip0_21_4">
<rect width="26" height="26" fill="white" transform="translate(7 7)"/>
</clipPath>
</defs>
</svg>
