<svg width="19" height="19" viewBox="0 0 19 19" fill="none" xmlns="http://www.w3.org/2000/svg">
<g clip-path="url(#clip0_2_6)">
<path d="M7.91668 15.0417V11.0833H11.0833V15.0417C11.0833 15.4771 11.4396 15.8333 11.875 15.8333H14.25C14.6854 15.8333 15.0417 15.4771 15.0417 15.0417V9.49999H16.3875C16.7517 9.49999 16.9258 9.04874 16.6488 8.81124L10.0304 2.84999C9.7296 2.58083 9.27043 2.58083 8.9696 2.84999L2.35127 8.81124C2.0821 9.04874 2.24835 9.49999 2.61252 9.49999H3.95835V15.0417C3.95835 15.4771 4.3146 15.8333 4.75002 15.8333H7.12502C7.56043 15.8333 7.91668 15.4771 7.91668 15.0417Z" fill="#F9F9F9" fill-opacity="0.976471"/>
</g>
<defs>
<clipPath id="clip0_2_6">
<rect width="19" height="19" fill="white"/>
</clipPath>
</defs>
</svg>
