<svg width="13" height="15" viewBox="0 0 13 15" fill="none" xmlns="http://www.w3.org/2000/svg">
<path d="M11.2501 0.375V1.95833H9.66675V0.375H3.33341V1.95833H1.75008V0.375H0.166748V14.625H1.75008V13.0417H3.33341V14.625H9.66675V13.0417H11.2501V14.625H12.8334V0.375H11.2501ZM3.33341 11.4583H1.75008V9.875H3.33341V11.4583ZM3.33341 8.29167H1.75008V6.70833H3.33341V8.29167ZM3.33341 5.125H1.75008V3.54167H3.33341V5.125ZM11.2501 11.4583H9.66675V9.875H11.2501V11.4583ZM11.2501 8.29167H9.66675V6.70833H11.2501V8.29167ZM11.2501 5.125H9.66675V3.54167H11.2501V5.125Z" fill="#F9F9F9" fill-opacity="0.976471"/>
</svg>
