<svg width="19" height="19" viewBox="0 0 19 19" fill="none" xmlns="http://www.w3.org/2000/svg">
<g clip-path="url(#clip0_2_9)">
<path d="M12.2708 11.0833H11.6454L11.4238 10.8696C12.3738 9.76125 12.8646 8.24917 12.5954 6.64208C12.2233 4.44125 10.3867 2.68375 8.17001 2.41458C4.82126 2.00292 2.00292 4.82125 2.41459 8.17C2.68376 10.3867 4.44126 12.2233 6.64209 12.5954C8.24917 12.8646 9.76126 12.3737 10.8696 11.4237L11.0833 11.6454V12.2708L14.4479 15.6354C14.7725 15.96 15.3029 15.96 15.6275 15.6354C15.9521 15.3108 15.9521 14.7804 15.6275 14.4558L12.2708 11.0833ZM7.52084 11.0833C5.54959 11.0833 3.95834 9.49208 3.95834 7.52083C3.95834 5.54958 5.54959 3.95833 7.52084 3.95833C9.49209 3.95833 11.0833 5.54958 11.0833 7.52083C11.0833 9.49208 9.49209 11.0833 7.52084 11.0833Z" fill="#F9F9F9" fill-opacity="0.976471"/>
</g>
<defs>
<clipPath id="clip0_2_9">
<rect width="19" height="19" fill="white"/>
</clipPath>
</defs>
</svg>
