<svg width="19" height="19" viewBox="0 0 19 19" fill="none" xmlns="http://www.w3.org/2000/svg">
<g clip-path="url(#clip0_2_12)">
<path d="M14.25 10.2917H10.2917V14.25C10.2917 14.6854 9.93546 15.0417 9.50004 15.0417C9.06462 15.0417 8.70837 14.6854 8.70837 14.25V10.2917H4.75004C4.31462 10.2917 3.95837 9.93542 3.95837 9.5C3.95837 9.06459 4.31462 8.70834 4.75004 8.70834H8.70837V4.75C8.70837 4.31459 9.06462 3.95834 9.50004 3.95834C9.93546 3.95834 10.2917 4.31459 10.2917 4.75V8.70834H14.25C14.6855 8.70834 15.0417 9.06459 15.0417 9.5C15.0417 9.93542 14.6855 10.2917 14.25 10.2917Z" fill="#F9F9F9" fill-opacity="0.976471"/>
</g>
<defs>
<clipPath id="clip0_2_12">
<rect width="19" height="19" fill="white"/>
</clipPath>
</defs>
</svg>
